<svg width="14" height="14" viewBox="0 0 14 14" fill="none" xmlns="http://www.w3.org/2000/svg">
<path fill-rule="evenodd" clip-rule="evenodd" d="M12.1056 14C11.6218 14 11.1379 13.8114 10.7688 13.4423L6.99609 9.67784L3.23159 13.4423C2.49346 14.1805 1.28783 14.1805 0.549697 13.4423C-0.188441 12.7042 -0.188441 11.5068 0.549697 10.7686L4.3224 6.99594L0.549697 3.23144C-0.623121 2.05042 0.197031 4.09052e-05 1.89475 4.09052e-05C2.39504 4.09052e-05 2.87073 0.196877 3.23159 0.549543L6.99609 4.32224L10.7688 0.549543C11.9498 -0.623275 14.0002 0.196877 14.0002 1.89459C14.0002 2.39489 13.8034 2.87057 13.4425 3.23144L9.67799 6.99594L13.4425 10.7686C14.6317 11.9579 13.787 14 12.1056 14Z" fill="#606060"/>
</svg>
