<svg width="34" height="32" viewBox="0 0 34 32" fill="none" xmlns="http://www.w3.org/2000/svg">
<path d="M15.7005 26.5244L8.07044 31.2392C7.26444 31.7372 6.25658 31.0192 6.46395 30.0947L8.42252 21.3629C8.59028 20.615 8.33102 19.8356 7.74868 19.3372L0.946817 13.5158C0.22876 12.9013 0.601837 11.7256 1.54286 11.6376L10.4337 10.8056C11.197 10.7342 11.8583 10.2467 12.1524 9.53863L15.5736 1.30203C15.9355 0.430788 17.1659 0.420216 17.5427 1.28511L21.105 9.46172C21.4112 10.1646 22.0808 10.6406 22.8453 10.6989L31.749 11.378C32.6914 11.4499 33.0847 12.619 32.3773 13.2458L25.6764 19.1832C25.1027 19.6915 24.8569 20.4753 25.0375 21.2202L27.146 29.9176C27.3692 30.8384 26.3739 31.5735 25.5595 31.0896L17.8461 26.5058C17.1833 26.1119 16.3565 26.1191 15.7005 26.5244Z" fill="#FFC500" stroke="black"/>
</svg>
