<svg width="34" height="32" viewBox="0 0 34 32" fill="none" xmlns="http://www.w3.org/2000/svg">
<path d="M15.7369 26.5244L8.10682 31.2392C7.30082 31.7372 6.29296 31.0192 6.50032 30.0947L8.45889 21.3629C8.62665 20.615 8.36739 19.8356 7.78505 19.3372L0.983194 13.5158C0.265137 12.9013 0.638214 11.7256 1.57924 11.6376L10.47 10.8056C11.2334 10.7342 11.8947 10.2467 12.1888 9.53863L15.61 1.30203C15.9719 0.430788 17.2023 0.420216 17.5791 1.28511L21.1413 9.46172C21.4476 10.1646 22.1172 10.6406 22.8816 10.6989L31.7854 11.378C32.7278 11.4499 33.121 12.619 32.4136 13.2458L25.7128 19.1832C25.1391 19.6915 24.8933 20.4753 25.0739 21.2202L27.1823 29.9176C27.4056 30.8384 26.4103 31.5735 25.5959 31.0896L17.8825 26.5058C17.2197 26.1119 16.3928 26.1191 15.7369 26.5244Z" fill="url(#paint0_linear_399_9644)" stroke="black"/>
<defs>
<linearGradient id="paint0_linear_399_9644" x1="0.136107" y1="16.1259" x2="33.3054" y2="15.8409" gradientUnits="userSpaceOnUse">
<stop offset="0.495" stop-color="#FFC500"/>
<stop offset="0.4951" stop-color="#997600" stop-opacity="0"/>
</linearGradient>
</defs>
</svg>
