<svg width="47" height="48" viewBox="0 0 47 48" fill="none" xmlns="http://www.w3.org/2000/svg">
<g clip-path="url(#clip0_382_5098)">
<path d="M23.1542 0.781006C16.8707 0.781006 16.0806 0.809949 13.6118 0.919931C11.143 1.0357 9.4614 1.42354 7.98821 1.9966C6.44293 2.57783 5.04326 3.48955 3.88702 4.66802C2.70926 5.82485 1.79766 7.22436 1.2156 8.76921C0.64253 10.2395 0.251802 11.924 0.138925 14.3841C0.0289428 16.8587 0 17.646 0 23.9381C0 30.2245 0.0289428 31.0117 0.138925 33.4806C0.254696 35.9465 0.64253 37.6281 1.2156 39.1012C1.80892 40.6236 2.59906 41.9145 3.88702 43.2024C5.17208 44.4904 6.46292 45.2834 7.98531 45.8739C9.4614 46.4469 11.1401 46.8377 13.606 46.9505C16.0777 47.0605 16.865 47.0895 23.1542 47.0895C29.4435 47.0895 30.2278 47.0605 32.6996 46.9505C35.1626 46.8348 36.8499 46.4469 38.3231 45.8739C39.8674 45.2923 41.2661 44.3806 42.4214 43.2024C43.7094 41.9145 44.4995 40.6236 45.0929 39.1012C45.663 37.6281 46.0538 35.9465 46.1695 33.4806C46.2795 31.0117 46.3084 30.2245 46.3084 23.9352C46.3084 17.646 46.2795 16.8587 46.1695 14.387C46.0538 11.924 45.663 10.2395 45.0929 8.76921C44.5109 7.22432 43.5993 5.82479 42.4214 4.66802C41.2655 3.48911 39.8658 2.57733 38.3202 1.9966C36.8442 1.42354 35.1597 1.03281 32.6967 0.919931C30.2249 0.809949 29.4406 0.781006 23.1484 0.781006H23.1571H23.1542ZM21.079 4.95456H23.1571C29.3393 4.95456 30.0715 4.97481 32.5114 5.08769C34.769 5.18899 35.9961 5.56814 36.8123 5.88362C37.8919 6.30329 38.6647 6.80689 39.4751 7.61729C40.2855 8.42769 40.7862 9.19757 41.2058 10.28C41.5242 11.0933 41.9005 12.3205 42.0018 14.578C42.1146 17.0179 42.1378 17.7502 42.1378 23.9294C42.1378 30.1087 42.1146 30.8439 42.0018 33.2837C41.9005 35.5413 41.5213 36.7656 41.2058 37.5818C40.8346 38.5871 40.2421 39.4961 39.4722 40.2416C38.6618 41.052 37.8919 41.5527 36.8094 41.9724C35.999 42.2907 34.7719 42.667 32.5114 42.7712C30.0715 42.8812 29.3393 42.9072 23.1571 42.9072C16.9749 42.9072 16.2398 42.8812 13.7999 42.7712C11.5424 42.667 10.3181 42.2907 9.50191 41.9724C8.49615 41.6017 7.58627 41.0103 6.83918 40.2416C6.06858 39.495 5.47517 38.5851 5.10261 37.5789C4.78714 36.7656 4.40799 35.5384 4.30669 33.2809C4.1967 30.841 4.17355 30.1087 4.17355 23.9237C4.17355 17.7415 4.1967 17.0121 4.30669 14.5722C4.41088 12.3147 4.78714 11.0875 5.10551 10.2713C5.52518 9.19178 6.02878 8.41901 6.83918 7.60861C7.64958 6.79821 8.41945 6.2975 9.50191 5.87783C10.3181 5.55946 11.5424 5.1832 13.7999 5.07901C15.9359 4.9806 16.7637 4.95166 21.079 4.94877V4.95456ZM35.5157 8.79816C35.1508 8.79816 34.7895 8.87002 34.4524 9.00966C34.1153 9.14929 33.809 9.35395 33.551 9.61196C33.293 9.86997 33.0883 10.1763 32.9487 10.5134C32.809 10.8505 32.7372 11.2118 32.7372 11.5767C32.7372 11.9415 32.809 12.3028 32.9487 12.64C33.0883 12.9771 33.293 13.2834 33.551 13.5414C33.809 13.7994 34.1153 14.004 34.4524 14.1437C34.7895 14.2833 35.1508 14.3552 35.5157 14.3552C36.2526 14.3552 36.9593 14.0624 37.4804 13.5414C38.0015 13.0203 38.2942 12.3136 38.2942 11.5767C38.2942 10.8398 38.0015 10.133 37.4804 9.61196C36.9593 9.09089 36.2526 8.79816 35.5157 8.79816ZM23.1571 12.0455C21.5799 12.0209 20.0136 12.3103 18.5494 12.8969C17.0851 13.4834 15.7522 14.3554 14.6281 15.462C13.5041 16.5686 12.6114 17.8878 12.0021 19.3428C11.3928 20.7977 11.079 22.3593 11.079 23.9367C11.079 25.514 11.3928 27.0757 12.0021 28.5306C12.6114 29.9855 13.5041 31.3047 14.6281 32.4113C15.7522 33.518 17.0851 34.3899 18.5494 34.9765C20.0136 35.563 21.5799 35.8524 23.1571 35.8278C26.2787 35.7791 29.256 34.5049 31.4463 32.2802C33.6366 30.0554 34.8642 27.0587 34.8642 23.9367C34.8642 20.8147 33.6366 17.8179 31.4463 15.5932C29.256 13.3685 26.2787 12.0942 23.1571 12.0455ZM23.1571 16.2162C25.2043 16.2162 27.1677 17.0294 28.6153 18.477C30.0629 19.9246 30.8762 21.888 30.8762 23.9352C30.8762 25.9824 30.0629 27.9458 28.6153 29.3934C27.1677 30.841 25.2043 31.6543 23.1571 31.6543C21.1099 31.6543 19.1465 30.841 17.6989 29.3934C16.2513 27.9458 15.4381 25.9824 15.4381 23.9352C15.4381 21.888 16.2513 19.9246 17.6989 18.477C19.1465 17.0294 21.1099 16.2162 23.1571 16.2162Z" fill="white"/>
</g>
<defs>
<clipPath id="clip0_382_5098">
<rect width="46.3084" height="46.3084" fill="white" transform="translate(0 0.781006)"/>
</clipPath>
</defs>
</svg>
