<?xml version="1.0" encoding="UTF-8" standalone="no"?>
<svg
   width="1920"
   height="120"
   viewBox="0 0 1920 120"
   fill="none"
   version="1.1"
   id="svg2"
   sodipodi:docname="wave.svg"
   inkscape:export-filename="wave1.svg"
   inkscape:export-xdpi="96"
   inkscape:export-ydpi="96"
   inkscape:version="1.4 (e7c3feb100, 2024-10-09)"
   xmlns:inkscape="http://www.inkscape.org/namespaces/inkscape"
   xmlns:sodipodi="http://sodipodi.sourceforge.net/DTD/sodipodi-0.dtd"
   xmlns="http://www.w3.org/2000/svg"
   xmlns:svg="http://www.w3.org/2000/svg">
  <defs
     id="defs2">
    <clipPath
       clipPathUnits="userSpaceOnUse"
       id="clipPath4">
      <rect
         style="fill:#000000"
         id="rect4"
         width="1920"
         height="120"
         x="0"
         y="0" />
    </clipPath>
  </defs>
  <sodipodi:namedview
     id="namedview2"
     pagecolor="#ffffff"
     bordercolor="#000000"
     borderopacity="0.25"
     inkscape:showpageshadow="2"
     inkscape:pageopacity="0.0"
     inkscape:pagecheckerboard="0"
     inkscape:deskcolor="#d1d1d1"
     inkscape:zoom="0.88793461"
     inkscape:cx="876.75375"
     inkscape:cy="163.30031"
     inkscape:window-width="2560"
     inkscape:window-height="1403"
     inkscape:window-x="0"
     inkscape:window-y="0"
     inkscape:window-maximized="1"
     inkscape:current-layer="g4" />
  <g
     id="g4"
     clip-path="url(#clipPath4)">
    <path
       fill-rule="evenodd"
       clip-rule="evenodd"
       d="m 1932.33,210 -50.6,-14.191 C 1831.14,181.617 1729.95,153.234 1628.76,139.043 1527.57,124.851 1426.38,124.851 1325.19,101.199 1224,77.5466 1122.81,30.2418 1021.62,11.3198 920.43,-7.60209 819.237,1.85887 768.642,6.58935 L 718.047,11.3198 V 210 h 50.595 c 50.595,0 151.788,0 252.978,0 101.19,0 202.38,0 303.57,0 101.19,0 202.38,0 303.57,0 101.19,0 202.38,0 252.97,0 z"
       fill="#00236d"
       id="path1" />
    <path
       fill-rule="evenodd"
       clip-rule="evenodd"
       d="m -285,210 54.4424,-14.191 C -176.1152,181.617 -67.2304,153.234 41.654,139.043 150.539,124.851 259.424,124.851 368.309,101.199 477.194,77.5466 586.078,30.2418 694.963,11.3198 803.848,-7.60209 912.73,1.85887 967.18,6.58935 l 54.44,4.73045 V 210 h -54.44 c -54.45,0 -163.332,0 -272.217,0 -108.885,0 -217.769,0 -326.654,0 -108.885,0 -217.77,0 -326.655,0 -108.8844,0 -217.7692,0 -272.2116,0 z"
       fill="#00236d"
       id="path2" />
  </g>
</svg>
