<svg width="54" height="39" viewBox="0 0 54 39" fill="none" xmlns="http://www.w3.org/2000/svg">
<path d="M32.2232 19.1706L23.5212 24.1431V14.198L32.2232 19.1706Z" fill="white" stroke="white" stroke-width="3" stroke-linecap="round" stroke-linejoin="round"/>
<path d="M2.38788 21.3159V17.7978C2.38788 10.6 2.38788 6.9999 4.63796 4.68518C6.89053 2.36797 10.436 2.26851 17.5243 2.06713C20.8808 1.97265 24.3119 1.90552 27.2507 1.90552C30.187 1.90552 33.618 1.97265 36.977 2.06713C44.0654 2.26851 47.6108 2.36797 49.8609 4.68518C52.1135 6.9999 52.1135 10.6025 52.1135 17.7978V21.3159C52.1135 28.5162 52.1135 32.1138 49.8634 34.431C47.6108 36.7457 44.0679 36.8477 36.977 37.0466C33.6205 37.1436 30.1895 37.2107 27.2507 37.2107C24.008 37.2009 20.7655 37.1462 17.5243 37.0466C10.436 36.8477 6.89053 36.7482 4.63796 34.431C2.38788 32.1138 2.38788 28.5137 2.38788 21.3184V21.3159Z" stroke="white" stroke-width="3"/>
</svg>
