<svg width="29" height="29" viewBox="0 0 29 29" fill="none" xmlns="http://www.w3.org/2000/svg">
<path d="M15.3444 23.7707C14.9103 23.5128 14.3688 23.5175 13.9393 23.7829L7.35081 27.854C6.32962 28.485 5.05268 27.5754 5.31541 26.404L7.0066 18.8643C7.11647 18.3745 6.94668 17.8641 6.5653 17.5376L0.69202 12.511C-0.217744 11.7324 0.254936 10.2428 1.44719 10.1313L9.12423 9.41286C9.62414 9.36608 10.0573 9.04682 10.2499 8.58312L13.204 1.47097C13.6625 0.367119 15.2214 0.353727 15.6988 1.44953L18.7747 8.50988C18.9753 8.97019 19.4138 9.28197 19.9145 9.32015L27.6027 9.90654C28.7967 9.99761 29.2949 11.4788 28.3987 12.2729L22.6126 17.3998C22.2369 17.7327 22.0759 18.2459 22.1942 18.7338L24.0148 26.2439C24.2976 27.4105 23.0367 28.3419 22.0048 27.7287L15.3444 23.7707Z" fill="#FFC500"/>
</svg>
